<?xml version="1.0" encoding="utf-8"?>
<!-- Generator: Adobe Illustrator 17.1.0, SVG Export Plug-In . SVG Version: 6.00 Build 0)  -->
<!DOCTYPE svg PUBLIC "-//W3C//DTD SVG 1.1//EN" "http://www.w3.org/Graphics/SVG/1.1/DTD/svg11.dtd">
<svg version="1.1" id="Layer_1" xmlns="http://www.w3.org/2000/svg" xmlns:xlink="http://www.w3.org/1999/xlink" x="0px" y="0px"
	 viewBox="0 0 43.9 46" enable-background="new 0 0 43.9 46" xml:space="preserve">
<path id="YouTube" fill="#FFFFFF" d="M34,31.9h-2.1l0-1.2c0-0.5,0.4-1,1-1h0.1c0.5,0,1,0.4,1,1L34,31.9z M26.2,29.2
	c-0.5,0-1,0.4-1,0.8V36c0,0.4,0.4,0.8,1,0.8c0.5,0,1-0.4,1-0.8V30C27.1,29.6,26.7,29.2,26.2,29.2z M39,25.9v11.3
	c0,2.7-2.4,4.9-5.2,4.9H12.3c-2.9,0-5.2-2.2-5.2-4.9V25.9c0-2.7,2.3-4.9,5.2-4.9h21.5C36.6,21,39,23.2,39,25.9z M13.7,38.5l0-11.9
	l2.7,0v-1.8l-7.1,0v1.7l2.2,0v11.9H13.7z M21.7,28.3h-2.2v6.4c0,0.9,0.1,1.4,0,1.5c-0.2,0.5-1,1-1.3,0.1c-0.1-0.2,0-0.7,0-1.6l0-6.4
	h-2.2l0,6.3c0,1,0,1.7,0,2c0.1,0.6,0,1.3,0.6,1.6c1,0.7,2.9-0.1,3.4-1.1l0,1.3l1.8,0L21.7,28.3L21.7,28.3z M28.8,35.6l0-5.3
	c0-2-1.5-3.2-3.6-1.6l0-3.9l-2.2,0l0,13.6l1.8,0l0.2-0.8C27.3,39.6,28.8,38.2,28.8,35.6z M35.7,34.9l-1.7,0c0,0.1,0,0.1,0,0.2v0.9
	c0,0.5-0.4,0.9-0.9,0.9h-0.3c-0.5,0-0.9-0.4-0.9-0.9V36v-1v-1.3h3.8v-1.4c0-1,0-2.1-0.1-2.7c-0.3-1.9-2.9-2.2-4.3-1.2
	c-0.4,0.3-0.7,0.7-0.9,1.3c-0.2,0.5-0.3,1.3-0.3,2.2v3.2C30.1,40.2,36.5,39.4,35.7,34.9z M27.2,17.8c0.1,0.3,0.3,0.5,0.5,0.7
	c0.2,0.2,0.5,0.3,0.9,0.3c0.3,0,0.6-0.1,0.9-0.3c0.2-0.2,0.5-0.4,0.6-0.8l0,0.9h2.5V8h-1.9v8.2c0,0.4-0.4,0.8-0.8,0.8
	c-0.4,0-0.8-0.4-0.8-0.8V8h-2v7.1c0,0.9,0,1.5,0,1.8C27,17.2,27.1,17.5,27.2,17.8z M19.7,11.8c0-1,0.1-1.8,0.3-2.4
	c0.2-0.6,0.5-1,0.9-1.4c0.4-0.3,1-0.5,1.7-0.5c0.6,0,1.1,0.1,1.5,0.3c0.4,0.2,0.7,0.5,0.9,0.9c0.2,0.4,0.4,0.7,0.5,1.1
	c0.1,0.4,0.1,1,0.1,1.7v2.7c0,1,0,1.7-0.1,2.1c-0.1,0.5-0.2,0.9-0.5,1.3c-0.2,0.4-0.6,0.7-1,0.9c-0.4,0.2-0.8,0.3-1.3,0.3
	c-0.6,0-1-0.1-1.4-0.2c-0.4-0.2-0.7-0.4-0.9-0.7c-0.2-0.3-0.4-0.7-0.5-1.2c-0.1-0.5-0.1-1.2-0.1-2.1L19.7,11.8L19.7,11.8z M21.6,16
	c0,0.6,0.4,1.1,1,1.1c0.5,0,1-0.5,1-1.1v-5.6c0-0.6-0.4-1.1-1-1.1c-0.5,0-1,0.5-1,1.1V16z M14.8,18.8h2.3l0-8.1l2.8-6.9h-2.6L15.9,9
	l-1.5-5.1h-2.5l2.9,6.9L14.8,18.8z"/>
</svg>
